PathFileType	3	(X/Y/Z)	C:\Users\jcho911\Documents\Smart Splint MAP workflow\data\P09\mocap\P09EMGstatic01.trc
DataRate	CameraRate	NumFrames	NumMarkers	Units	OrigDataRate	OrigDataStartFrame	OrigNumFrames
200.0	200.0	6	37	mm	200.0	871	995	
Frame#	Time	LAS1			RAS1			LPS1			RPS1			RTH1			RTH2			RTH3			RLFC			RMFC			LTH1			LTH2			LTH3			LLFC			LMFC			LTB1			LTB2			LTB3			LLMAL			LMMAL			LToe			LMT1			LCAL			LMT5			RToe			RMT5			RMT1			RCAL			RTB1			RTB2			RTB3			RMMAL			RLMAL			T10			RACR1			CLAV			C7			LACR1			
		X1	Y1	Z1	X2	Y2	Z2	X3	Y3	Z3	X4	Y4	Z4	X5	Y5	Z5	X6	Y6	Z6	X7	Y7	Z7	X8	Y8	Z8	X9	Y9	Z9	X10	Y10	Z10	X11	Y11	Z11	X12	Y12	Z12	X13	Y13	Z13	X14	Y14	Z14	X15	Y15	Z15	X16	Y16	Z16	X17	Y17	Z17	X18	Y18	Z18	X19	Y19	Z19	X20	Y20	Z20	X21	Y21	Z21	X22	Y22	Z22	X23	Y23	Z23	X24	Y24	Z24	X25	Y25	Z25	X26	Y26	Z26	X27	Y27	Z27	X28	Y28	Z28	X29	Y29	Z29	X30	Y30	Z30	X31	Y31	Z31	X32	Y32	Z32	X33	Y33	Z33	X34	Y34	Z34	X35	Y35	Z35	X36	Y36	Z36	X37	Y37	Z37	
871	4.345	325.94513	1041.0674	-812.27271	592.14557	1032.0262	-814.75702	415.77084	1094.5811	-628.65283	511.30594	1093.4962	-627.31506	671.06464	781.77863	-722.17804	633.95313	681.12018	-795.11951	654.67261	611.41852	-688.74274	648.37451	525.31293	-695.60553	537.41333	511.20709	-721.91229	268.06253	685.54279	-737.51825	291.41855	760.58185	-818.10669	330.76852	626.10455	-791.78448	294.31406	526.85223	-716.30164	395.73788	517.1792	-744.53546	269.99402	317.84918	-684.74982	270.51953	402.77765	-648.33929	294.66595	223.9381	-619.67432	286.59631	89.715118	-641.02533	372.31006	90.336632	-681.62659	258.43979	29.768972	-851.18048	322.90485	24.233866	-818.07849	337.28348	40.699226	-588.54852	218.70697	27.693758	-768.77728	667.14319	33.427216	-841.35101	715.99225	29.848289	-769.00433	606.98059	25.149471	-809.38934	623.3429	48.381676	-579.64838	679.94873	326.89194	-624.05206	638.80829	402.94772	-718.91852	673.65253	206.00253	-659.53522	575.45563	94.601265	-660.44617	671.10138	84.306404	-635.09491	458.69226	1335.2676	-609.30042	684.49634	1524.4371	-713.86963	451.74667	1468.9888	-819.07526	469.15118	1589.0168	-656.89313	231.87523	1531.7167	-732.00476
872	4.35	325.90808	1041.0663	-812.29822	592.0849	1032.1514	-814.80273	415.74338	1094.5984	-628.68378	511.3074	1093.498	-627.32007	671.07208	781.76953	-722.29791	634.00024	681.1814	-795.13788	654.70679	611.44495	-688.729	648.38934	525.30737	-695.63751	537.41144	511.21201	-721.91394	268.08652	685.51746	-737.51105	291.46442	760.59412	-818.17297	330.78055	626.12598	-791.82477	294.31961	526.87817	-716.35236	395.9313	517.09467	-744.6275	270.05237	317.87134	-684.74524	270.53259	402.79166	-648.33173	294.67068	223.95572	-619.68018	286.5929	89.702393	-641.04761	372.32281	90.382637	-681.62201	258.4071	29.78669	-851.16504	322.90918	24.264551	-818.06458	337.28757	40.719673	-588.55188	218.69925	27.680851	-768.79108	667.15698	33.44083	-841.38293	715.9917	29.831654	-768.98969	606.96667	25.186403	-809.41205	623.3609	48.401276	-579.66022	679.93292	326.89725	-624.02026	638.82452	402.98062	-718.91919	673.67902	206.00194	-659.58502	575.47675	94.616119	-660.4162	671.10168	84.336731	-635.08777	458.72333	1335.2656	-609.36591	684.52582	1524.4854	-713.84424	451.7262	1468.9415	-819.09497	469.15115	1589.0161	-656.89362	231.90063	1531.7291	-732.09131
873	4.355	325.94077	1041.0853	-812.36786	592.10974	1032.1488	-814.83875	415.74554	1094.5983	-628.68164	511.26999	1093.5452	-627.3819	671.05536	781.79834	-722.23126	633.98712	681.1803	-795.12567	654.66248	611.39282	-688.80847	648.36755	525.31055	-695.60516	537.44946	511.1705	-721.9895	268.0625	685.53815	-737.58643	291.48132	760.57269	-818.18005	330.79333	626.10986	-791.82507	294.32614	526.88611	-716.3717	395.89185	517.08258	-744.59979	269.9693	317.88077	-684.75708	270.47885	402.78448	-648.34888	294.65982	223.95374	-619.72327	286.58768	89.703209	-641.04803	372.30362	90.376907	-681.64386	258.43219	29.809942	-851.1712	322.90836	24.263388	-818.06738	337.29242	40.720161	-588.55298	218.69939	27.684725	-768.7851	667.19409	33.451248	-841.37903	715.97705	29.82444	-769.01575	606.96484	25.204609	-809.4361	623.35193	48.391159	-579.65405	679.7749	326.9696	-623.97198	638.80933	402.9509	-718.91711	673.68365	206.0183	-659.56512	575.47662	94.627922	-660.43982	671.14374	84.337593	-635.09192	458.7207	1335.2639	-609.36517	684.50482	1524.4767	-713.93304	451.75043	1468.9788	-819.12598	469.12125	1589.0348	-656.95868	231.88683	1531.6984	-732.08472
874	4.36	325.94006	1041.0603	-812.37054	592.07574	1032.1129	-814.8501	415.74472	1094.5981	-628.73254	511.26563	1093.5157	-627.38135	671.07104	781.77374	-722.29333	633.93878	681.17273	-795.10333	654.67334	611.40802	-688.82166	648.41504	525.30957	-695.64111	537.39136	511.19345	-721.96582	268.03009	685.56244	-737.59003	291.45862	760.57056	-818.18628	330.78995	626.09772	-791.86377	294.32788	526.86865	-716.41565	395.89368	517.11658	-744.7467	270.13992	317.88171	-684.85229	270.51389	402.79675	-648.40106	294.63071	223.99606	-619.72125	286.60733	89.706551	-641.0451	372.3342	90.341217	-681.66339	258.42041	29.790258	-851.17969	322.90732	24.262604	-818.07666	337.285	40.718658	-588.55286	218.70505	27.668213	-768.79779	667.15619	33.459465	-841.37823	715.96655	29.828354	-768.99762	606.91718	25.225159	-809.44843	623.38397	48.388725	-579.65692	679.9834	326.93933	-624.06537	638.81036	402.95355	-718.91608	673.65356	206.02278	-659.61542	575.46332	94.637642	-660.47607	671.11835	84.34008	-635.09344	458.7933	1335.2988	-609.30792	684.50891	1524.4683	-713.92639	451.75043	1468.9788	-819.12598	469.11786	1589.078	-656.96075	231.8696	1531.7146	-732.11249
875	4.365	325.95706	1041.0588	-812.4104	592.09241	1032.1292	-814.87018	415.77457	1094.5969	-628.75885	511.26843	1093.5142	-627.38916	671.06012	781.76245	-722.25885	633.93567	681.16956	-795.15198	654.70007	611.45203	-688.76227	648.37396	525.30396	-695.61591	537.39331	511.1937	-721.9657	268.05795	685.5166	-737.64648	291.45163	760.58667	-818.26422	330.78946	626.09772	-791.86548	294.33423	526.85156	-716.42371	395.79666	517.14465	-744.70325	269.90536	317.8157	-684.77557	270.50082	402.80673	-648.38135	294.63437	223.99643	-619.7226	286.63049	89.705788	-641.02411	372.2677	90.347618	-681.67175	258.45776	29.797653	-851.19446	322.86914	24.281027	-818.06635	337.311	40.713524	-588.57507	218.72704	27.66753	-768.784	667.19263	33.464191	-841.34686	715.98865	29.843483	-769.03394	606.93805	25.20507	-809.41467	623.38483	48.398037	-579.6391	679.80896	326.98029	-624.01453	638.80872	402.94644	-718.91956	673.62817	206.03046	-659.54865	575.48187	94.624786	-660.47064	671.12714	84.33963	-635.09161	458.81503	1335.3246	-609.36853	684.47339	1524.4103	-714.01477	451.70261	1468.9369	-819.20465	469.1123	1589.0526	-656.99036	231.89183	1531.6882	-732.13452
876	4.37	325.92828	1041.0308	-812.40973	592.10437	1032.1217	-814.93872	415.72284	1094.5906	-628.81891	511.26837	1093.5145	-627.38794	671.03534	781.76404	-722.27167	633.90613	681.13959	-795.1532	654.68634	611.43127	-688.73706	648.34979	525.30511	-695.61029	537.36737	511.17868	-721.95093	268.02145	685.53729	-737.62933	291.42316	760.55902	-818.2616	330.73401	626.08893	-791.93127	294.30429	526.83588	-716.46271	395.75873	517.13953	-744.71716	269.93494	317.8389	-684.80212	270.47549	402.78589	-648.46429	294.64709	223.97539	-619.74835	286.60352	89.711136	-641.04797	372.29431	90.352043	-681.69928	258.40924	29.787371	-851.16638	322.85611	24.302065	-818.06451	337.29843	40.718716	-588.55933	218.68874	27.679302	-768.7915	667.1673	33.468536	-841.36389	715.9599	29.816351	-769.04913	606.92303	25.228388	-809.44812	623.40051	48.39904	-579.63409	679.8374	327.00067	-623.95093	638.74365	402.95169	-718.91705	673.6853	205.99321	-659.63281	575.48114	94.604713	-660.41077	671.10962	84.331734	-635.08588	458.81943	1335.3489	-609.36804	684.48969	1524.4277	-713.98578	451.71219	1468.8678	-819.23828	469.14111	1589.0662	-657.02185	231.86383	1531.6798	-732.15649
